# xmcd
#
# Track frame offsets: 
#        150
#        20211
#        45084
#        66324
#        84822
#        105325
#        128966
#        151361
#        167773
#        189778
#
# Disc length: 2836 seconds
#
# Revision: 3
# Processed by: cddbd v1.5.2PL0 Copyright (c) Steve Scherf et al.
# Submitted via: ExactAudioCopy v0.99pb5
#
DISCID=700b120a
DTITLE=Orquesta Magia Caribeña - Llego la Salsa - II parte
DYEAR=2008
DGENRE=Salsa
TTITLE0=Cocolia
TTITLE1=Señor Gallo
TTITLE2=El Jaleo
TTITLE3=Pao Pao
TTITLE4=Dolores
TTITLE5=Mi Querida Bomba
TTITLE6=Las Malas Lenguas
TTITLE7=Federico Boogaloo
TTITLE8=No le Digan
TTITLE9=La Cumbia Cucuta
EXTD=YEAR: 2008
EXTT0=
EXTT1=
EXTT2=
EXTT3=
EXTT4=
EXTT5=
EXTT6=
EXTT7=
EXTT8=
EXTT9=
PLAYORDER=
